<?xml version="1.0" encoding="utf-8"?>
<!-- Svg Vector Icons : http://www.onlinewebfonts.com/icon -->
<!DOCTYPE svg PUBLIC "-//W3C//DTD SVG 1.1//EN" "http://www.w3.org/Graphics/SVG/1.1/DTD/svg11.dtd">
<svg version="1.1" xmlns="http://www.w3.org/2000/svg" xmlns:xlink="http://www.w3.org/1999/xlink" x="0px" y="0px" viewBox="0 0 256 256" enable-background="new 0 0 256 256" xml:space="preserve">
<metadata> Svg Vector Icons : http://www.onlinewebfonts.com/icon </metadata>
<g><g><path fill="#000000" d="M130.4,238.9l-11.9-20.7c-4.2-7.2-1.7-16.4,5.5-20.5l2.6-1.5c-0.2-1.7-0.2-3.3-0.2-5s0.1-3.3,0.2-5l-2.6-1.5c-3.4-2-6-5.3-7-9.1c-1-3.9-0.5-8,1.5-11.4l11.9-20.7c2-3.4,5.3-6,9.2-7c1.3-0.3,2.6-0.5,3.9-0.5c2.6,0,5.2,0.7,7.5,2l2.6,1.5c2.7-1.8,5.6-3.5,8.5-4.9v-3.2c0-0.3,0.1-0.5,0.1-0.7c-7.9-6-17.9-10.7-30.8-13.2v-7.4c17.7-8.5,30.1-26.4,30.1-47.4c0-29.1-23.6-52.7-52.7-52.7c-29.1,0-52.7,23.6-52.7,52.7c0,21,12.4,38.9,30.1,47.4v7.4c-60,11.5-60.2,69.6-60.2,103.2c0,26.2,114.7,25.5,113.4,25.1C135.7,244.9,132.4,242.4,130.4,238.9z"/><path fill="#000000" d="M222.1,191.2c0-3.5-0.6-6.8-1.5-10l9.3-5.4l-9.4-16.3l-9.2,5.3c-4.7-4.8-10.7-8.2-17.4-9.9v-10.8h-18.8v10.7c-6.7,1.7-12.7,5.2-17.4,9.9l-9.2-5.3l-9.4,16.3l9.3,5.4c-0.9,3.2-1.5,6.5-1.5,10s0.6,6.8,1.5,10l-9.3,5.4l9.4,16.3l9.2-5.3c4.7,4.8,10.7,8.2,17.4,9.9v10.7l18.8,0v-10.7c6.7-1.7,12.7-5.2,17.4-9.9l9.2,5.3l9.4-16.3l-9.3-5.4C221.5,198,222.1,194.7,222.1,191.2z M184.5,209.2c-9.9,0-18-8-18-18s8-18,18-18s18,8,18,18S194.4,209.2,184.5,209.2z"/></g></g>
</svg>